# xmcd
#
# Track frame offsets:
#	150
#	10999
#	23155
#	38425
#	50547
#	64797
#	83691
#	92378
#	108749
#	126904
#	136644
#
# Disc length: 1995 seconds
#
# Revision: 2
# Processed by: cddbd v1.5.2PL0 Copyright (c) Steve Scherf et al.
# Submitted via: audiograbber 1.83.01
#
DISCID=8007c90b
DTITLE=Various Artist - The Essential Patriotic Collection [CD2]
DYEAR=2001
DGENRE=County
TTITLE0=Minnie Pearl - What Is An American
TTITLE1=Sandy Posey - When Johnny Comes Marching Home Again
TTITLE2=Marc Allan - God Bless America
TTITLE3=Nashville Banjo (Instrumental) - Marine Hymn
TTITLE4=Ace Cannon (Instrumental) - America
TTITLE5=Nashville Harmonicas (Instrumental) - Dixie
TTITLE6=Sandy Posey - Grand Old Flag
TTITLE7=David Allan Coe - Yellow Rose of Texas
TTITLE8=Ace Canon (Instrumental) - Battle Hymn of The Republic
TTITLE9=Nashville Harmonicas (Instrumental) - Shenandoah
TTITLE10=Marc Allan - Star Spangled Banner
EXTD=
EXTT0=
EXTT1=
EXTT2=
EXTT3=
EXTT4=
EXTT5=
EXTT6=
EXTT7=
EXTT8=
EXTT9=
EXTT10=
PLAYORDER=
